<?xml version="1.0" encoding="utf-8"?>
<!-- Generator: Adobe Illustrator 27.9.1, SVG Export Plug-In . SVG Version: 6.00 Build 0)  -->
<svg version="1.1" id="Layer_1" xmlns="http://www.w3.org/2000/svg" xmlns:xlink="http://www.w3.org/1999/xlink" x="0px" y="0px"
	 viewBox="0 0 133.5 42.5" style="enable-background:new 0 0 133.5 42.5;" xml:space="preserve">
<style type="text/css">
	.st0{fill:#FFFFFF;}
</style>
<path class="st0" d="M24.3,26.5h-2.5v-5c0-0.6,0-1.3-0.1-1.9c-0.1-0.3-0.3-0.5-0.5-0.6c-0.3-0.2-0.6-0.2-0.9-0.2
	c-0.4,0-0.8,0.1-1.1,0.3c-0.3,0.2-0.6,0.5-0.7,0.9c-0.2,0.6-0.2,1.2-0.2,1.8v4.7h-2.4V13.2h2.4v5.2c0.5-0.6,1.2-1.1,2-1.3
	c0.8-0.2,1.6-0.1,2.4,0.2c0.4,0.2,0.8,0.5,1,0.8c0.2,0.3,0.4,0.7,0.5,1.1c0.1,0.6,0.1,1.2,0.1,1.9V26.5z M14.7,26.5h-2.5v-5
	c0-0.6,0-1.3-0.1-1.9c-0.1-0.3-0.3-0.5-0.5-0.6c-0.3-0.2-0.6-0.2-0.9-0.2c-0.4,0-0.8,0.1-1.1,0.3c-0.3,0.2-0.6,0.5-0.7,0.9
	c-0.2,0.6-0.2,1.2-0.2,1.8v4.7H6.3V13.2h2.5v5.2c0.3-0.4,0.8-0.8,1.2-1c0.5-0.2,1-0.4,1.6-0.4c0.5,0,1,0.1,1.5,0.3
	c0.4,0.2,0.8,0.5,1,0.8c0.2,0.3,0.4,0.7,0.5,1.1c0.1,0.6,0.1,1.2,0.1,1.9V26.5z M15.4,5.4C7.1,5.3,0.3,12,0.3,20.3
	c-0.1,8.3,6.6,15.1,14.9,15.2s15.1-6.6,15.2-14.9C30.4,12.3,23.8,5.5,15.4,5.4"/>
<path class="st0" d="M40,8.5h-3.3l0,9.7h1.6v-3.6H40c1.8,0,2.9-1.2,2.9-3S41.8,8.5,40,8.5 M38.3,13.1V9.9h1.5c0.9,0,1.4,0.7,1.4,1.6
	c0,0.9-0.5,1.6-1.4,1.6H38.3z"/>
<path class="st0" d="M46.5,11c-0.4,0-0.8,0.1-1.2,0.3c-1.1,0.6-1.8,1.7-1.8,3.4c0,2.1,1.1,3.7,3.1,3.7c0,0,0,0,0,0
	c0.5,0,0.9-0.1,1.3-0.3c0.4-0.2,0.8-0.5,1.1-0.8l-0.7-0.9c-0.2,0.2-0.4,0.4-0.7,0.5s-0.6,0.2-0.9,0.2c-1.2,0-1.8-0.9-1.8-2h4.5v-0.4
	C49.4,12.7,48.5,11,46.5,11C46.5,11,46.5,11,46.5,11 M44.9,14.1c0-1,0.5-1.9,1.5-1.9c1.1,0,1.5,0.9,1.5,1.9H44.9z"/>
<path class="st0" d="M54.9,8.7c-0.2,0.2-0.4,0.4-0.6,0.6s-0.5,0.2-0.8,0.2s-0.6-0.1-0.8-0.2s-0.5-0.3-0.6-0.6l-0.7,0.5
	c0.2,0.3,0.6,0.6,0.9,0.8c0.4,0.2,0.8,0.3,1.2,0.3h0v0c0,0,0,0,0,0c0.4,0,0.8-0.1,1.2-0.3c0.4-0.2,0.7-0.5,0.9-0.8L54.9,8.7z
	 M56,11.2h-1.5l-2.4,4.4v-4.4h-1.5v7h1.4l2.5-4.5v4.5H56V11.2z"/>
<polygon class="st0" points="61.8,11.2 57.2,11.2 57.2,12.5 58.7,12.5 58.7,18.2 60.2,18.2 60.2,12.5 61.8,12.5 "/>
<polygon class="st0" points="68.2,11.2 66.7,11.2 64.3,15.6 64.3,11.2 62.9,11.2 62.9,18.2 64.3,18.2 66.8,13.7 66.8,18.2 
	68.2,18.2 "/>
<polygon class="st0" points="75.3,11.2 73.8,11.2 73.8,13.9 71.4,13.9 71.4,11.2 69.9,11.2 69.9,18.2 71.4,18.2 71.4,15.2 
	73.8,15.2 73.8,18.2 75.3,18.2 "/>
<polygon class="st0" points="81.1,11.2 76.7,11.2 76.7,18.2 78.1,18.2 78.1,12.5 81.1,12.5 "/>
<path class="st0" d="M39.9,25.1c-0.4,0-0.7,0.1-1,0.3c-0.3,0.2-0.6,0.5-0.7,0.8v-0.9h-1.5V35h1.5v-3.6c0.2,0.3,0.4,0.6,0.7,0.8
	c0.3,0.2,0.7,0.3,1.1,0.3c0,0,0,0,0,0c0.4,0,0.7-0.1,1-0.3c1-0.6,1.5-1.8,1.5-3.4C42.5,26.9,41.8,25.1,39.9,25.1 M39.5,31.2
	c-0.3,0-0.6-0.1-0.8-0.3c-0.2-0.2-0.4-0.4-0.5-0.7v-2.9c0.1-0.3,0.3-0.5,0.5-0.7c0.2-0.2,0.5-0.3,0.8-0.3c1.2,0,1.5,1.2,1.5,2.4
	S40.6,31.2,39.5,31.2"/>
<path class="st0" d="M46.2,25.1c-0.4,0-0.9,0.1-1.3,0.2c-0.4,0.2-0.8,0.4-1.2,0.8l0.6,1c0.2-0.2,0.5-0.4,0.8-0.6
	c0.3-0.1,0.6-0.2,1-0.2c0,0,0.1,0,0.1,0c0.1,0,0.3,0,0.4,0.1c0.2,0.1,0.3,0.2,0.5,0.3c0.1,0.1,0.2,0.3,0.3,0.5
	c0.1,0.2,0.1,0.4,0.1,0.5v1c-0.2-0.3-0.5-0.5-0.8-0.6c-0.3-0.1-0.6-0.2-0.9-0.2c0,0-0.1,0-0.1,0c-1.3,0-2.1,0.9-2.1,2.3
	c0,1.4,0.8,2.3,2.1,2.3c0,0,0,0,0,0c0.3,0,0.7-0.1,1-0.2c0.3-0.2,0.6-0.4,0.8-0.7v0.7h1.4v-4.8C48.9,25.9,47.9,25.1,46.2,25.1
	C46.3,25.1,46.2,25.1,46.2,25.1 M46.1,31.5L46.1,31.5c-0.3,0-0.6-0.2-0.9-0.4c-0.2-0.2-0.3-0.6-0.3-0.9s0.1-0.6,0.3-0.9
	c0.2-0.2,0.5-0.4,0.9-0.4c0.3,0,0.5,0.1,0.8,0.2c0.2,0.1,0.4,0.3,0.5,0.6v1c-0.1,0.2-0.3,0.4-0.6,0.6C46.6,31.4,46.4,31.5,46.1,31.5
	"/>
<path class="st0" d="M56.1,22.6h-1.4c0,0.1,0,0.2-0.1,0.2c-0.1,0.1-0.1,0.1-0.2,0.1c-0.3,0.1-0.7,0.2-1.1,0.3
	c-0.5,0.1-1,0.2-1.4,0.5c-1.4,0.8-1.6,2.5-1.6,4.7s0.9,4,3,4c0,0,0,0,0.1,0c0.4,0,0.9-0.1,1.3-0.3c1.1-0.6,1.7-1.8,1.7-3.4
	c0-0.5-0.1-0.9-0.2-1.4c-0.3-1.2-1.1-2.3-2.6-2.3c0,0,0,0-0.1,0c-0.4,0-0.8,0.1-1.1,0.3c-0.4,0.2-0.7,0.5-0.9,0.8
	c0.1-1.1,1-1.6,2.2-1.7C54.8,24.3,56.1,23.9,56.1,22.6 M53.2,31.2c-0.2,0-0.5-0.1-0.7-0.2c-0.6-0.4-0.8-1.3-0.8-2.2
	c0-1.1,0.4-2.4,1.5-2.4c0,0,0,0,0,0c0.2,0,0.5,0.1,0.7,0.2c0.6,0.4,0.9,1.2,0.9,2.2C54.8,29.9,54.4,31.2,53.2,31.2
	C53.2,31.2,53.2,31.2,53.2,31.2"/>
<path class="st0" d="M60,25.1c-0.4,0-0.9,0.1-1.3,0.3C57.7,26,57,27.2,57,28.8c0,0.5,0.1,0.9,0.2,1.4c0.4,1.3,1.2,2.3,2.8,2.3
	c0,0,0,0,0.1,0c0.4,0,0.9-0.1,1.3-0.3c1.1-0.6,1.7-1.8,1.7-3.4c0-0.5-0.1-1-0.2-1.4C62.5,26.1,61.7,25.1,60,25.1
	C60.1,25.1,60,25.1,60,25.1 M60.1,31.2c-0.2,0-0.5-0.1-0.7-0.2c-0.6-0.4-0.9-1.2-0.9-2.2c0-1.2,0.4-2.4,1.5-2.4c0,0,0,0,0,0
	c0.2,0,0.5,0.1,0.7,0.2c0.6,0.4,0.9,1.2,0.9,2.2C61.6,30,61.2,31.2,60.1,31.2C60.1,31.2,60.1,31.2,60.1,31.2"/>
<polygon class="st0" points="68.2,25.3 63.6,25.3 63.6,26.6 65.2,26.6 65.2,32.3 66.6,32.3 66.6,26.6 68.2,26.6 "/>
<path class="st0" d="M72,25.1c-0.4,0-0.9,0.1-1.3,0.3C69.6,26,69,27.2,69,28.8c0,0.5,0.1,0.9,0.2,1.4c0.4,1.3,1.2,2.3,2.8,2.3
	c0,0,0,0,0.1,0c0.4,0,0.9-0.1,1.3-0.3c1.1-0.6,1.7-1.8,1.7-3.4c0-0.5-0.1-1-0.2-1.4C74.5,26.1,73.6,25.1,72,25.1
	C72,25.1,72,25.1,72,25.1 M72,31.2c-0.2,0-0.5-0.1-0.7-0.2c-0.6-0.4-0.9-1.2-0.9-2.2c0-1.2,0.4-2.4,1.5-2.4c0,0,0,0,0,0
	c0.2,0,0.5,0.1,0.7,0.2c0.6,0.4,0.9,1.2,0.9,2.2C73.6,30,73.2,31.2,72,31.2C72,31.2,72,31.2,72,31.2"/>
<path class="st0" d="M81.5,25.3h-4.5L76.6,29c-0.1,1.1-0.2,2-1.1,2.2v2.9H77v-1.8h3.8v1.8h1.5v-3h-0.8V25.3z M77.3,31
	c0.5-0.5,0.8-1.2,0.8-2l0.2-2.5H80V31H77.3z"/>
<path class="st0" d="M86,25.1c-0.4,0-0.9,0.1-1.3,0.2c-0.4,0.2-0.8,0.4-1.2,0.8l0.6,1c0.2-0.2,0.5-0.4,0.8-0.6
	c0.3-0.1,0.6-0.2,1-0.2c0,0,0.1,0,0.1,0c0.1,0,0.3,0,0.4,0.1c0.2,0.1,0.3,0.2,0.5,0.3c0.1,0.1,0.2,0.3,0.3,0.5
	c0.1,0.2,0.1,0.4,0.1,0.5v1c-0.2-0.3-0.5-0.5-0.8-0.6c-0.3-0.1-0.6-0.2-0.9-0.2c0,0-0.1,0-0.1,0c-1.3,0-2.1,0.9-2.1,2.3
	c0,1.4,0.8,2.3,2.1,2.3c0,0,0,0,0.1,0c0.3,0,0.7-0.1,1-0.2c0.3-0.2,0.6-0.4,0.8-0.7v0.7h1.4v-4.8C88.6,25.9,87.7,25.1,86,25.1
	C86.1,25.1,86,25.1,86,25.1 M85.9,31.5c-0.3,0-0.6-0.2-0.9-0.4c-0.2-0.2-0.3-0.6-0.3-0.9s0.1-0.6,0.3-0.9c0.2-0.2,0.5-0.4,0.9-0.4
	c0.3,0,0.5,0.1,0.8,0.2c0.2,0.1,0.4,0.3,0.6,0.6v1c-0.1,0.2-0.3,0.4-0.6,0.6C86.4,31.4,86.2,31.5,85.9,31.5L85.9,31.5z"/>
<polygon class="st0" points="94.4,25.3 89.8,25.3 89.8,26.6 91.3,26.6 91.3,32.3 92.8,32.3 92.8,26.6 94.4,26.6 "/>
<path class="st0" d="M98.1,25.1c-0.4,0-0.8,0.1-1.2,0.3c-1.1,0.6-1.8,1.7-1.8,3.4c0,2.1,1.1,3.7,3.2,3.7c0,0,0,0,0,0
	c0.5,0,0.9-0.1,1.3-0.3c0.4-0.2,0.8-0.5,1.1-0.8l-0.7-0.9c-0.2,0.2-0.4,0.4-0.7,0.5c-0.3,0.1-0.6,0.2-0.9,0.2c-1.2,0-1.8-0.9-1.8-2
	h4.5v-0.4C101.1,26.8,100.2,25.1,98.1,25.1C98.1,25.1,98.1,25.1,98.1,25.1 M96.6,28.2c0-1,0.5-1.9,1.5-1.9c1,0,1.5,0.9,1.5,1.9H96.6
	z"/>
<path class="st0" d="M107.7,25.3h-4.5l-0.3,3.7c0,0.4-0.1,0.8-0.2,1.1c-0.1,0.6-0.3,1.1-0.9,1.1v1.2c1.9,0,2.4-1.5,2.5-3.4l0.2-2.5
	h1.8v5.7h1.4V25.3z"/>
<path class="st0" d="M111.7,25.1c-0.4,0-0.8,0.1-1.2,0.3c-1.1,0.6-1.8,1.7-1.8,3.4c0,2.1,1.1,3.7,3.2,3.7c0,0,0,0,0,0
	c0.5,0,0.9-0.1,1.3-0.3c0.4-0.2,0.8-0.5,1.1-0.8l-0.7-0.9c-0.2,0.2-0.4,0.4-0.7,0.5c-0.3,0.1-0.6,0.2-0.9,0.2c-1.2,0-1.8-0.9-1.8-2
	h4.5v-0.4C114.7,26.8,113.8,25.1,111.7,25.1C111.8,25.1,111.8,25.1,111.7,25.1 M110.2,28.2c0-1,0.5-1.9,1.5-1.9c1,0,1.5,0.9,1.5,1.9
	H110.2z"/>
<path class="st0" d="M120.2,22.8c-0.2,0.2-0.4,0.4-0.6,0.6c-0.3,0.1-0.5,0.2-0.8,0.2s-0.6-0.1-0.8-0.2c-0.3-0.1-0.5-0.3-0.6-0.6
	l-0.7,0.5c0.2,0.3,0.6,0.6,1,0.8c0.4,0.2,0.8,0.3,1.2,0.3h0v0c0,0,0,0,0,0c0.4,0,0.8-0.1,1.2-0.3c0.4-0.2,0.7-0.5,1-0.8L120.2,22.8z
	 M121.4,25.3h-1.5l-2.4,4.4v-4.4H116v7h1.4l2.5-4.5v4.5h1.4V25.3z"/>
<rect x="136.3" y="5.4" class="st0" width="2" height="30.1"/>
</svg>
