<?xml version="1.0" encoding="utf-8"?>
<!-- Generator: Adobe Illustrator 27.9.6, SVG Export Plug-In . SVG Version: 9.03 Build 54986)  -->
<svg version="1.1" id="Layer_1" xmlns="http://www.w3.org/2000/svg" xmlns:xlink="http://www.w3.org/1999/xlink" x="0px" y="0px"
	 viewBox="0 0 100 100" style="enable-background:new 0 0 100 100;" xml:space="preserve">
<style type="text/css">
	.st0{fill:#FFFFFF;}
</style>
<g>
	<path class="st0" d="M50.1,94.6c-24.9,0-45-20.1-45-45.2c0-24.8,20.2-44.9,45.1-44.8c24.9,0,44.9,20.2,44.9,45.3
		C95.1,74.6,74.9,94.6,50.1,94.6z M63.8,57.7c0.4-0.1,0.7-0.2,1-0.2c3.4-0.8,5.8-2.6,6.6-6.2c0.8-4,0.9-8.1,0.1-12.1
		c-0.6-3.5-2.8-5.9-6.3-6.8c-1.6-0.4-3.2-0.6-4.9-0.6c-11.2,0-22.3,0-33.5,0c-0.3,0-0.6,0-1,0c0,12.9,0,25.6,0,38.3
		c3.2,0,6.3,0,9.5,0c0-4.2,0-8.3,0-12.4c0.4,0,0.8,0,1.1,0c5.4,0,10.8,0,16.2,0c0.8,0,1.2,0.2,1.7,0.9c2.4,3.7,4.9,7.3,7.4,11
		c0.3,0.4,0.6,0.7,1.1,0.6c3.1,0,6.2,0,9.3,0c0.2,0,0.4,0,0.7-0.1C69.9,66,66.9,61.9,63.8,57.7z M75,32.4c2.7,0,4.9-2.2,5-4.9
		c0-2.7-2.2-5-4.9-5c-2.7,0-4.9,2.2-4.9,4.9C70.1,30.2,72.2,32.4,75,32.4z"/>
	<path class="st0" d="M35.5,49.3c0-3,0-5.9,0-8.9c0.1,0,0.2-0.1,0.4-0.1c7.9,0,15.8,0,23.7,0c2,0,2.7,0.9,2.7,2.8c0,1.1,0,2.2,0,3.3
		c0,2-0.8,2.8-2.8,2.8c-4.5,0-8.9,0-13.4,0c-3.3,0-6.5,0-9.8,0C36.1,49.3,35.8,49.3,35.5,49.3z"/>
</g>
</svg>
