<?xml version="1.0" encoding="utf-8"?>
<!-- Generator: Adobe Illustrator 27.9.6, SVG Export Plug-In . SVG Version: 9.03 Build 54986)  -->
<svg version="1.1" id="Layer_1" xmlns="http://www.w3.org/2000/svg" xmlns:xlink="http://www.w3.org/1999/xlink" x="0px" y="0px"
	 viewBox="0 0 100 100" style="enable-background:new 0 0 100 100;" xml:space="preserve">
<style type="text/css">
	.st0{fill-rule:evenodd;clip-rule:evenodd;fill:#FFFFFF;}
</style>
<path class="st0" d="M49.9,4.6c-24.8,0-45,20.2-45,45s20.2,45,45,45s45-20.2,45-45S74.8,4.6,49.9,4.6z M71.5,29.6
	c-0.1,1-0.4,3.2-0.9,5.9c-0.4,3-1.1,6.8-1.6,10.7l-3.3,22.6c0,0-0.3,3.3-2.9,3.9c-2.6,0.5-6.5-2-7.2-2.6c-0.1-0.1-0.6-0.5-1.4-1
	c-3.1-2-10.1-6.6-12.9-9.1c-1-0.9-2.2-2.6,0.2-4.6l15-14.4c1.7-1.7,3.4-5.8-3.7-0.9L32.6,53.9c0,0-2.3,1.4-6.6,0.2l-9.4-2.9
	c0,0-3.4-2.2,2.4-4.3c10.9-5.1,23.7-10.3,36-15.3c4-1.6,7.9-3.2,11.7-4.8C66.7,26.7,72,24.8,71.5,29.6z"/>
</svg>
