<?xml version="1.0" encoding="utf-8"?>
<!-- Generator: Adobe Illustrator 27.9.6, SVG Export Plug-In . SVG Version: 9.03 Build 54986)  -->
<svg version="1.1" id="Layer_1" xmlns="http://www.w3.org/2000/svg" xmlns:xlink="http://www.w3.org/1999/xlink" x="0px" y="0px"
	 viewBox="0 0 100 100" style="enable-background:new 0 0 100 100;" xml:space="preserve">
<style type="text/css">
	.st0{fill-rule:evenodd;clip-rule:evenodd;fill:#FFFFFF;}
</style>
<path class="st0" d="M49.9,4.6c-24.8,0-45,20.2-45,45s20.2,45,45,45s45-20.2,45-45S74.7,4.6,49.9,4.6z M68.7,67.8
	c-2.2-6.9-7.7-12.3-15.1-13.1v13.1h-1.2c-20,0-31.3-13.7-31.8-36.5h10C31,48,38.3,55.1,44.1,56.5V31.3h9.5v14.4
	c5.8-0.6,11.8-7.2,13.9-14.4h9.4c-1.5,8.9-8.1,15.5-12.8,18.2c4.7,2.2,12.2,7.9,15,18.3H68.7z"/>
</svg>
