<?xml version="1.0" encoding="utf-8"?>
<!-- Generator: Adobe Illustrator 27.9.6, SVG Export Plug-In . SVG Version: 9.03 Build 54986)  -->
<svg version="1.1" id="Layer_1" xmlns="http://www.w3.org/2000/svg" xmlns:xlink="http://www.w3.org/1999/xlink" x="0px" y="0px"
	 viewBox="0 0 100 100" style="enable-background:new 0 0 100 100;" xml:space="preserve">
<style type="text/css">
	.st0{fill-rule:evenodd;clip-rule:evenodd;fill:#FFFFFF;}
</style>
<g>
	<path class="st0" d="M50,4.6c-24.8,0-45,20.2-45,45s20.2,45,45,45s45-20.2,45-45S74.8,4.6,50,4.6z M75.9,61.2
		c-0.6,4-2.5,6.1-6.6,6.6c-4.5,0.5-14.7,0.7-19.2,0.7c-4.7,0-14.1-0.2-18.8-0.6c-4.1-0.4-6.8-2.6-7.4-6.7c-0.5-3-0.6-6.4-0.6-12
		c0-6.2,0.2-8.8,0.7-11.6c0.7-4,2.6-5.9,7-6.4c4.6-0.5,8.8-0.7,18.5-0.7c4.7,0,14.8,0.3,19.5,0.6c4.1,0.4,6.4,2.9,6.9,6.8
		c0.4,2.8,0.6,6.8,0.6,11.1C76.6,56.8,75.9,61.2,75.9,61.2z"/>
	<polygon class="st0" points="44.3,57.1 58.9,49.3 44.3,41.8 	"/>
</g>
</svg>
