
                                <!--?xml version="1.0" encoding="utf-8"?-->
                                <!-- Generator: Adobe Illustrator 27.9.6, SVG Export Plug-In . SVG Version: 9.03 Build 54986)  -->
                                <svg version="1.1" id="Layer_1" xmlns="http://www.w3.org/2000/svg" xmlns:xlink="http://www.w3.org/1999/xlink" x="0px" y="0px" viewBox="0 0 75 75" style="enable-background:new 0 0 75 75;" xml:space="preserve">
                                    <style type="text/css">
                                        .st0 {
                                            fill: none;
                                            stroke: #003766;
                                            stroke-miterlimit: 22.926;
                                        }
                                    </style>
                                    <g id="Layer_2_00000112614650641183006480000012210165017041573818_">
                                    </g>
                                    <path class="st0" d="M36.2,40.3v-2.2l1.8-1.6v-3.8h1.5 M46.2,36h4.2 M28.8,42.1h8 M38,40.5v5.1L37.4,47h-9.1l-0.6-1.5v-5 M43.7,38.2  v-1.5 M43.7,29.5h4.7l1.6,5.1h-6.3V29.5z M39.7,40.5V26.9H50l2.5,8.1v9.2l-1,1.3h-3.3 M39.5,45.5H23.7 M15.2,45.5h-1.7l-1-1.2v-3.8  h5.1 M21.1,40.5H40 M19.4,42.3c1.2,0,2.2,1,2.2,2.2s-1,2.2-2.2,2.2s-2.2-1-2.2-2.2S18.2,42.3,19.4,42.3z M19.4,40.1  c2.4,0,4.4,2,4.4,4.4s-2,4.4-4.4,4.4s-4.4-2-4.4-4.4C15.1,42.1,17,40.1,19.4,40.1z M43.8,42.3c1.2,0,2.2,1,2.2,2.2s-1,2.2-2.2,2.2  s-2.2-1-2.2-2.2S42.6,42.3,43.8,42.3z M43.8,40.1c2.4,0,4.4,2,4.4,4.4s-2,4.4-4.4,4.4s-4.4-2-4.4-4.4C39.4,42.1,41.4,40.1,43.8,40.1  z M15,40.1v-2.9l0.6-0.8h9.6l0.6,0.9v2.8 M14.9,38.3H26">
                                    </path>
                                </svg>
