
                                <!--?xml version="1.0" encoding="utf-8"?-->
                                <!-- Generator: Adobe Illustrator 27.9.6, SVG Export Plug-In . SVG Version: 9.03 Build 54986)  -->
                                <svg version="1.1" id="Layer_1" xmlns="http://www.w3.org/2000/svg" xmlns:xlink="http://www.w3.org/1999/xlink" x="0px" y="0px" viewBox="0 0 75 75" style="enable-background:new 0 0 75 75;" xml:space="preserve">
                                    <style type="text/css">
                                        .st0 {
                                            fill: none;
                                            stroke: #003766;
                                            stroke-miterlimit: 22.926;
                                        }
                                    </style>
                                    <line class="st0" x1="15.1" y1="44.1" x2="15.1" y2="41.2"></line>
                                    <path class="st0" d="M19.2,46c1.2,0,2.2,1,2.2,2.2s-1,2.2-2.2,2.2s-2.2-1-2.2-2.2S18,46,19.2,46z M19.2,43.8c2.4,0,4.4,2,4.4,4.4
	s-2,4.4-4.4,4.4s-4.4-2-4.4-4.4C14.9,45.8,16.8,43.8,19.2,43.8z M43.6,44v-2.2l1.8-1.6v-3.8h1.5 M53.6,39.7h4.2 M36.2,45.8h8
	 M45.3,44.2v5.1l-0.6,1.4h-9.1L35,49.2v-5 M51,41.9v-1.5 M51,33.2h4.7l1.6,5.1H51V33.2z M47,44.2V30.6h10.3l2.5,8.1v9.2l-1,1.3h-3.3
	 M46.8,49.2H33.1 M15.2,49.2h-1.7l-1-1.2v-3.8h5.1 M21.1,44.2h6 M30.7,44.2h16.6 M29,46c1.2,0,2.2,1,2.2,2.2s-1,2.2-2.2,2.2
	s-2.2-1-2.2-2.2S27.7,46,29,46z M29,43.8c2.4,0,4.4,2,4.4,4.4s-2,4.4-4.4,4.4s-4.4-2-4.4-4.4C24.6,45.8,26.5,43.8,29,43.8z M51.1,46
	c1.2,0,2.2,1,2.2,2.2s-1,2.2-2.2,2.2s-2.2-1-2.2-2.2C49,47,49.9,46,51.1,46z M51.1,43.8c2.4,0,4.4,2,4.4,4.4s-2,4.4-4.4,4.4
	s-4.4-2-4.4-4.4C46.8,45.8,48.7,43.8,51.1,43.8z"></path>
                                    <path class="st0" d="M31.4,29.2h32.9l0.1-2.2 M62.7,29.2c0.1,0.3,0.1,0.6,0.2,0.8c0.5,1.1,1.1,1.5,0.7,2.9c-0.6,1.8-2.9,1.3-3.6,0
	c-3.2-5.2,3,2.7,1.2-1.7c-0.8-0.8-0.9-1.2-0.8-2 M31.8,41.3h8.6l2.2-4.2h1.2v-7.9 M29.1,36.2h1.7l-0.4,2.7h-1.3
	C29.1,38.9,29.1,36.2,29.1,36.2z M20,37.4v-3 M18.3,37.4v-3 M16.6,37.4v-3 M22.4,26.3h8.3l2.1,8.2l-1.1,6.8H15.1l-1.9-1.2v-7.9h9.3
	v-5.9H22.4z M25.9,28.8h3.7l1.2,5.1h-4.9C25.9,33.9,25.9,28.8,25.9,28.8z M32.8,34.7l5.1-5.6 M32,39.7l9.7-10.6 M17.4,32.1V27h5.1
	 M31,27h34"></path>
                                    <g id="Layer_2_00000133515721857275953030000010284781277392912265_">
                                    </g>
                                    <g id="Layer_3">
                                    </g>
                                </svg>
