
                                <!--?xml version="1.0" encoding="utf-8"?-->
                                <!-- Generator: Adobe Illustrator 27.9.6, SVG Export Plug-In . SVG Version: 9.03 Build 54986)  -->
                                <svg version="1.1" id="Layer_1" xmlns="http://www.w3.org/2000/svg" xmlns:xlink="http://www.w3.org/1999/xlink" x="0px" y="0px" viewBox="0 0 75 75" style="enable-background:new 0 0 75 75;" xml:space="preserve">
                                    <style type="text/css">
                                        .st0 {
                                            fill: none;
                                            stroke: #003766;
                                            stroke-miterlimit: 22.926;
                                        }
                                    </style>
                                    <path class="st0" d="M46.8,41.4v-3.6 M17.5,41.6h-1.6v-1.8"></path>
                                    <path class="st0" d="M24.6,43.5c1.2,0,2.2,1,2.2,2.2s-1,2.2-2.2,2.2s-2.2-1-2.2-2.2S23.3,43.5,24.6,43.5z M24.6,41.3
	c2.4,0,4.4,2,4.4,4.4S27,50,24.6,50s-4.4-2-4.4-4.4S22.1,41.3,24.6,41.3z M48.9,41.5v-2.2l1.8-1.6v-3.8h1.5 M58.9,37.1h4.2
	 M41.5,43.3h8 M50.6,41.6v5.1L50,48.1h-9.1l-0.6-1.5v-5 M56.4,39.4v-1.5 M56.4,30.6h4.7l1.6,5.1h-6.3V30.6z M52.3,41.7V28.1h10.3
	l2.5,8.1v9.2l-1,1.3h-3.3 M52.2,46.7H38.4 M20.5,46.7h-1.7l-1-1.2v-3.8H23 M26.4,41.6h6 M36,41.6h16.6 M34.3,43.5
	c1.2,0,2.2,1,2.2,2.2s-1,2.2-2.2,2.2s-2.2-1-2.2-2.2S33.1,43.5,34.3,43.5z M34.3,41.3c2.4,0,4.4,2,4.4,4.4s-2,4.4-4.4,4.4
	s-4.4-2-4.4-4.4S31.9,41.3,34.3,41.3z M56.5,43.4c1.2,0,2.2,1,2.2,2.2s-1,2.2-2.2,2.2s-2.2-1-2.2-2.2S55.3,43.4,56.5,43.4z
	 M56.5,41.3c2.4,0,4.4,2,4.4,4.4s-2,4.4-4.4,4.4s-4.4-2-4.4-4.4C52.1,43.2,54,41.3,56.5,41.3z"></path>
                                    <path class="st0" d="M37.5,28.6h2.8v1.5c0,0.8-0.6,1.4-1.4,1.4c-0.8,0-1.4-0.6-1.4-1.4C37.5,30.1,37.5,28.6,37.5,28.6z M28.3,28.6
	H31v1.5c0,0.8-0.6,1.4-1.4,1.4s-1.4-0.6-1.4-1.4L28.3,28.6L28.3,28.6z M19,28.6h2.8v1.5c0,0.8-0.6,1.4-1.4,1.4S19,30.9,19,30.1V28.6
	z M14,40.3v-1.9h23.7l1.3,1.4 M14.1,38.5c-1-0.9-1.6-2.2-1.6-3.7l0,0c0-2.7,2.2-5,5-5H19 M21.9,29.8h6.2 M31.2,29.8h6.3 M40.3,29.8
	h2.4c2.7,0,5,2.2,5,5l0,0c0,2.7-2.2,5-5,5h-4.4H13.7"></path>
                                    <g id="Layer_2_00000018922636525719128010000008779573461896385925_">
                                    </g>
                                    <g id="Layer_3">
                                    </g>
                                </svg>
