
                                <!--?xml version="1.0" encoding="utf-8"?-->
                                <!-- Generator: Adobe Illustrator 27.9.6, SVG Export Plug-In . SVG Version: 9.03 Build 54986)  -->
                                <svg version="1.1" id="Layer_1" xmlns="http://www.w3.org/2000/svg" xmlns:xlink="http://www.w3.org/1999/xlink" x="0px" y="0px" viewBox="0 0 75 75" style="enable-background:new 0 0 75 75;" xml:space="preserve">
                                    <style type="text/css">
                                        .st0 {
                                            fill: none;
                                            stroke: #003766;
                                            stroke-miterlimit: 22.926;
                                        }
                                    </style>
                                    <g>
                                        <path class="st0" d="M19.6,41.3l-5.8-2.1l3.7-9.1h21.9l4.2-5h6.8l1.4,2.6 M41.5,41.3l3.8-12.8h1.3">
                                        </path>
                                        <path class="st0" d="M43.3,41.1v-2.2l1.8-1.6v-3.8h1.5 M53.3,36.8h4.2 M35.9,42.9h8 M45.1,41.3v5.1l-0.6,1.4h-9.1l-0.6-1.5v-5
		 M50.8,39v-1.5 M50.8,30.2h4.7l1.6,5.1h-6.3V30.2z M46.7,41.3V27.7H57l2.5,8.1V45l-1,1.3h-3.3 M46.6,46.3H30.8 M22.3,46.3h-1.7
		l-1-1.2v-3.8h5.1 M28.2,41.3h18.9 M26.5,43.1c1.2,0,2.2,1,2.2,2.2s-1,2.2-2.2,2.2s-2.2-1-2.2-2.2S25.3,43.1,26.5,43.1z M26.5,40.9
		c2.4,0,4.4,2,4.4,4.4s-2,4.4-4.4,4.4s-4.4-2-4.4-4.4C22.2,42.9,24.1,40.9,26.5,40.9z M50.9,43.1c1.2,0,2.2,1,2.2,2.2
		s-1,2.2-2.2,2.2s-2.2-1-2.2-2.2S49.7,43.1,50.9,43.1z M50.9,40.9c2.4,0,4.4,2,4.4,4.4s-2,4.4-4.4,4.4s-4.4-2-4.4-4.4
		C46.5,42.8,48.5,40.9,50.9,40.9z"></path>
                                        <path class="st0" d="M18.1,38l1.9-4.9 M22.7,38.7l2.2-5.7 M27.7,38.8l2.2-5.7 M32.9,38.8l2.2-5.7 M38,38.9l2.2-5.7 M17.7,37.6
		l2.5,1.1h18.2"></path>
                                        <g id="Layer_2_00000072992368543338830150000017936296128791088788_">
                                        </g>
                                    </g>
                                </svg>
                            