
                                <!--?xml version="1.0" encoding="utf-8"?-->
                                <!-- Generator: Adobe Illustrator 27.9.6, SVG Export Plug-In . SVG Version: 9.03 Build 54986)  -->
                                <svg version="1.1" id="Layer_1" xmlns="http://www.w3.org/2000/svg" xmlns:xlink="http://www.w3.org/1999/xlink" x="0px" y="0px" viewBox="0 0 75 75" style="enable-background:new 0 0 75 75;" xml:space="preserve">
                                    <style type="text/css">
                                        .st0 {
                                            fill: none;
                                            stroke: #003766;
                                            stroke-miterlimit: 22.926;
                                        }
                                    </style>
                                    <path class="st0" d="M52.9,41.8V31.1 M54.2,41.9V31.2 M47,41.8V31.1 M48.2,41.9V31.2 M41,41.8V31.1 M42.3,41.9V31.2 M35,41.8V31.1
	 M36.3,41.9V31.2 M29.1,41.8V31.1 M30.4,41.9V31.2 M23.1,41.8V31.1 M24.4,41.9V31.2 M17.2,41.8V31.1 M18.5,41.9V31.2 M58.5,42h-46
	 M12.5,31.1h46.1 M23.3,49.5c-0.5,0-0.9,0.4-0.9,0.9s0.4,0.9,0.9,0.9s0.9-0.4,0.9-0.9C24.2,49.9,23.8,49.5,23.3,49.5z M23.3,47.9v-4
	 M23.3,48.2c-1.2,0-2.2,1-2.2,2.2s1,2.2,2.2,2.2s2.2-1,2.2-2.2C25.5,49.1,24.5,48.2,23.3,48.2z M37.9,49.2h-1.7l-1-1.2v-3.8
	 M50.1,44.2h-6.3 M40.4,44.2H12.5V28.8h46.1v15.4h-4.8 M51.9,46c-1.2,0-2.2,1-2.2,2.2s1,2.2,2.2,2.2s2.2-1,2.2-2.2S53.1,46,51.9,46z
	 M51.9,43.8c-2.4,0-4.4,2-4.4,4.4s2,4.4,4.4,4.4s4.4-2,4.4-4.4C56.2,45.8,54.3,43.8,51.9,43.8z M55.9,49.2h1.7l1-1.2v-3.8 M42.2,46
	C41,46,40,47,40,48.2s1,2.2,2.2,2.2s2.2-1,2.2-2.2S43.4,46,42.2,46z M42.2,43.8c-2.4,0-4.4,2-4.4,4.4s2,4.4,4.4,4.4s4.4-2,4.4-4.4
	C46.5,45.8,44.6,43.8,42.2,43.8z"></path>
                                    <g id="Layer_2_00000037673687448093917940000011295701257338350219_">
                                    </g>
                                    <g id="Layer_3">
                                    </g>
                                </svg>
