<?xml version="1.0" encoding="utf-8"?>
                                <!-- Generator: Adobe Illustrator 27.9.6, SVG Export Plug-In . SVG Version: 9.03 Build 54986)  -->

                                        
                                    

                                <svg version="1.1" id="Layer_1" xmlns="http://www.w3.org/2000/svg" xmlns:xlink="http://www.w3.org/1999/xlink" x="0px" y="0px" viewBox="0 0 75 75" style="enable-background:new 0 0 75 75;" xml:space="preserve">
<style type="text/css">
.st0 {
                                            fill: none;
                                            stroke: #003766;
                                            stroke-miterlimit: 22.926;
                                        }
</style>
                                    <path class="st0" d="M19,48.5h16.6 M58.3,33.6l-5-2.9 M50.8,28.2l3,1.6l-0.9,1.6l-5-2.8 M18.8,50.1h16.6 M32,44.5v-1.8 M16.2,44.5
	v-1.8 M28.4,34l8,1.7 M28.4,32.1l8.1,1.7 M35.5,27.9h-7.1v10.2l7.6,1.7 M56.6,23.4l6,15.4L61,38.6L54.7,27v-1.5L56.6,23.4z
	 M60.5,37.9l-2.2,0.3c-0.1,3.9-2.2,6.3-5.6,6.7c-0.3,0-0.5,0.2-0.8,0.2c-0.3,0.1-0.5,0.1-0.8,0.2c9.4,6.5,17.4,5.1,11.3-6.6
	 M35.8,29l2.9-3.8l17.4-1.1 M54.9,27.5l-14.2,2.7l-4.4,7.2 M14.8,38.6h3.3 M14.8,36.7h3.3 M14.8,34.9h3.3 M26.5,26.3h8.6
	c2.1,8.4,1.2,7.2,1.1,16.3H17.8c-3.1,0-4.8,0.4-4.8-3.9v-6h12L26.5,26.3z M18.8,46.8h16.6 M16.2,44.7H39c2,0,3.7,1.6,3.7,3.7
	c0,2-1.6,3.7-3.7,3.7H16.2c-2,0-3.7-1.6-3.7-3.7C12.5,46.4,14.2,44.7,16.2,44.7z M16.2,46.6c1,0,1.8,0.8,1.8,1.8s-0.8,1.8-1.8,1.8
	s-1.8-0.8-1.8-1.8C14.4,47.4,15.2,46.6,16.2,46.6z M38.9,46.6c1,0,1.8,0.8,1.8,1.8s-0.8,1.8-1.8,1.8s-1.8-0.8-1.8-1.8
	C37.1,47.4,37.9,46.6,38.9,46.6z"></path>
                                </svg>